<svg xmlns="http://www.w3.org/2000/svg" xmlns:xlink="http://www.w3.org/1999/xlink" width="60" height="60" viewBox="0 0 60 60">
    <defs>
        <path id="a" d="M.12 8.918h6.206V.023H.12z"/>
    </defs>
    <g fill="none" fill-rule="evenodd">
        <rect width="60" height="60" fill="#E44949" rx="4"/>
        <g transform="translate(9.158 38.32)">
            <mask id="b" fill="#fff">
                <use xlink:href="#a"/>
            </mask>
            <path fill="#FEFEFE" d="M2.497 1.816v1.957h.346c.539 0 .809-.35.809-1.046 0-.606-.294-.911-.88-.911h-.275zM.12 8.918V.023h3.567c1.56 0 2.342.777 2.342 2.33 0 1.287-.473 2-1.415 2.142v.025c.523.042.9.279 1.129.71.15.284.224.788.224 1.52v.735c0 .548.034.892.103 1.028.066.137.152.23.256.28v.125h-2.52c-.119-.15-.178-.578-.178-1.282 0-.151-.005-.374-.02-.668a19.76 19.76 0 0 1-.018-.654c0-.357-.056-.602-.164-.736-.095-.106-.257-.162-.488-.162h-.44v3.502H.12z" mask="url(#b)"/>
        </g>
        <path fill="#FEFEFE" d="M17.272 47.238v-8.562h4.92v1.943h-2.63v1.318h2.458v1.87h-2.459v1.486h2.733v1.945zM26.424 40.403v5.107h.47c.444 0 .664-.435.664-1.305V41.71c0-.433-.031-.729-.093-.888-.114-.281-.349-.42-.708-.42h-.333zm-2.287 6.835v-8.562h3.294c.977 0 1.661.372 2.05 1.116.219.414.359.93.411 1.545.016.225.023.765.023 1.62 0 1.303-.112 2.249-.332 2.842-.36.959-1.065 1.439-2.118 1.439h-3.328zM32.42 47.238v-8.562h4.918v1.942h-2.63v1.32h2.46v1.869h-2.46v1.486h2.735v1.945zM41.928 41.661l.709-2.985h2.483L43.06 43.87v3.37h-2.288v-3.37l-2.06-5.193h2.54l.65 2.985zM46.583 47.238v-8.562h4.92v1.943h-2.63v1.318h2.46v1.87h-2.46v1.486h2.736v1.945zM30.718 34.094c-4.36 0-7.997-3.745-7.997-8.232 0-4.488 3.638-8.232 7.997-8.232s7.997 3.744 7.997 8.232c0 4.487-3.638 8.232-7.997 8.232m1.225-18.726C23.188 13.389 9 26.356 9 26.356c11.257 1.703 13.953 7.994 20.891 10.029C40.883 39.61 51.94 25.823 51.94 25.823c-12.549-2.928-11.911-8.628-19.996-10.455"/>
        <path fill="#FEFEFE" d="M22.721 25.862c0-.362.027-.718.072-1.069a22.652 22.652 0 0 0-1.128 1.087c.377.057.728.127 1.062.207-.002-.075-.006-.15-.006-.225M38.702 25.423a8.271 8.271 0 0 1-.043 1.379c.667-.66 1.058-1.146 1.058-1.146-.359-.072-.695-.15-1.015-.233M9.2 28.871c.502.173 4.783-.258 15.195 7.52H9.229l-.03-7.52zM42.316 36.361h9.305v-6.999s-5.011 5.342-9.305 7"/>
        <path fill="#FEFEFE" d="M30.484 28.973c-1.52 0-2.788-1.306-2.788-2.87 0-1.565 1.268-2.87 2.788-2.87 1.52 0 2.788 1.305 2.788 2.87 0 1.564-1.268 2.87-2.788 2.87m-.375-7.474c-3.342-1.003-8.666 4.62-8.666 4.62 4.734.718 5.868 3.362 8.783 4.218 4.622 1.353 9.27-4.442 9.27-4.442-5.344-1.075-6.045-3.393-9.387-4.396"/>
    </g>
</svg>
